<svg width="24" height="24" viewBox="0 0 24 24" fill="none" xmlns="http://www.w3.org/2000/svg">
<path d="M22.3799 12.0049C22.3799 17.7348 17.7348 22.3799 12.0049 22.3799C6.27493 22.3799 1.62988 17.7348 1.62988 12.0049C1.62988 6.27493 6.27493 1.62988 12.0049 1.62988C17.7348 1.62988 22.3799 6.27493 22.3799 12.0049Z" fill="#EA5E56"/>
<path fill-rule="evenodd" clip-rule="evenodd" d="M13 8L12.75 12.5004C12.75 13.0527 12.5523 13.5004 12 13.5004C11.4477 13.5004 11.25 13.0527 11.25 12.5004L11 8C11 7.44772 11.4477 7 12 7C12.5523 7 13 7.44772 13 8ZM12 17C12.5523 17 13 16.5523 13 16C13 15.4477 12.5523 15 12 15C11.4477 15 11 15.4477 11 16C11 16.5523 11.4477 17 12 17Z" fill="white"/>
</svg>
